[img]http://img717.imageshack.us/img717/4744/3d300v1.jpg[/img]
[img]http://img543.imageshack.us/img543/6480/i1wh1p19u5qq7.png[/img]
[img]http://img198.imageshack.us/img198/6276/djsound.jpg[/img]
[img]http://img825.imageshack.us/img825/4946/englishvinglish0a.jpg[/img]
[font=Papyrus][b][size=7][color=Black]Navrai Maajhi English Vinglish 720p{Niliv} {TmrG}[/color][/size][/b][/font]

[img]http://img140.imageshack.us/img140/4230/2ded61de9b.gif[/img]
[font=Bradley Hand ITC][b][size=7][color=Silver] Navrai Maajhi English Vinglish 720p{Niliv} {TmrG}.mp4 
Format : MPEG-4 
Language : Hindi
Format profile : Base Media 
Codec ID : isom 
File size : 71.2 MiB 
Duration : 1mn 48s 
Overall bit rate mode : Variable 
Overall bit rate : 5 529 Kbps 
Writing application : Lavf52.32.0 

Video 
ID : 1 
Format : MPEG-4 Visual 
Format profile : Simple@L1 
Format settings, BVOP : No 
Format settings, QPel : No 
Format settings, GMC : No warppoints 
Format settings, Matrix : Default (H.263) 
Codec ID : 20 
Duration : 1mn 48s 
Bit rate : 5 415 Kbps 
Width : 1 280 pixels 
Height : 720 pixels 
Display aspect ratio : 16:9 
Frame rate mode : Constant 
Frame rate : 25.000 fps 
Color space : YUV 
Chroma subsampling : 4:2:0 
Bit depth : 8 bits 
Scan type : Progressive 
Compression mode : Lossy 
Bits/(Pixel*Frame) : 0.235 
Stream size : 69.7 MiB (98%) 
Writing library : Lavc52.22.3 

Audio 
ID : 2 
Format : AAC 
Format/Info : Advanced Audio Codec 
Format profile : LC 
Codec ID : 40 
Duration : 1mn 48s 
Bit rate mode : Variable 
Bit rate : 110 Kbps 
Channel(s) : 2 channels 
Channel positions : Front: L R 
Sampling rate : 32.0 KHz 
Compression mode : Lossy 
Stream size : 1.42 MiB (2%)  [/color][/size][/b][/font]


[img]http://img593.imageshack.us/img593/2849/23267035.png[/img]
[img]http://img32.imageshack.us/img32/6808/navraimaajhienglishving.jpg[/img]



[b][color=red]:-TO JOIN ΓÇÿTORRENT MAFIA RELEASE GROUPΓÇÖ & TO CHECK ITS UPLOADS, CLICK BELOW:-[/color][/b]

[img]http://img267.imageshack.us/img267/4200/addmefacebook.jpg[/img]

[img]http://img528.imageshack.us/img528/122/commentsrappreciated.gif[/img]
[img]http://img16.imageshack.us/img16/4171/ifacuhm.gif[/img]
[img]http://img651.imageshack.us/img651/8647/jfkpd3jpg.gif[/img]
[img]http://img855.imageshack.us/img855/9109/seedthetorrent.jpg[/img]
[img]http://img440.imageshack.us/img440/8343/vh6wpgth.gif[/img]
[img]http://img827.imageshack.us/img827/9416/zj7xh0.gif[/img]
[img]http://img513.imageshack.us/img513/2484/thankyoupl.jpg[/img]
